Results
version=1
nRows=22
nColumns=24
inDegrees=yes
endheader
time	pelvis_tilt	pelvis_list	pelvis_rotation	pelvis_tx	pelvis_ty	pelvis_tz	hip_flexion_r	hip_adduction_r	hip_rotation_r	knee_angle_r	ankle_angle_r	subtalar_angle_r	mtp_angle_r	hip_flexion_l	hip_adduction_l	hip_rotation_l	knee_angle_l	ankle_angle_l	subtalar_angle_l	mtp_angle_l	lumbar_extension	lumbar_bending	lumbar_rotation
      1.10350000	     -3.33683972	      4.09724941	     -1.81171275	      0.11814211	      1.06645074	      0.28530360	     25.57868212	     -4.26532303	     -2.08180321	    -67.49163249	     -5.67298684	    -14.21484941	      5.57166144	     14.46840975	      8.08189023	      1.49677951	    -13.25715820	     -0.25267600	    -11.20023991	     -0.88159328	      3.60952187	     -0.59016270	      2.11893639
      1.10766667	     -3.34664235	      4.13403519	     -1.89391457	      0.12333613	      1.06691424	      0.28539106	     26.11377728	     -4.16635027	     -1.77538302	    -67.04211662	     -5.09229843	    -14.62252711	      5.51436418	     14.15476949	      8.12414458	      1.46609113	    -13.22909114	     -0.03446362	    -11.23765195	     -0.91431552	      3.60416648	     -0.64012190	      2.12045153
      1.11183333	     -3.34565568	      4.15914549	     -1.98289697	      0.12853313	      1.06740027	      0.28546909	     26.61238509	     -4.04872098	     -1.45950767	    -66.50112824	     -4.54664594	    -15.01799669	      5.45796116	     13.82220047	      8.15549790	      1.44721560	    -13.18364924	      0.17698721	    -11.26800194	     -0.94598964	      3.60429566	     -0.66366374	      2.11978207
      1.11600000	     -3.34662766	      4.18783034	     -2.07442000	      0.13376203	      1.06788671	      0.28555755	     27.08787099	     -3.92896898	     -1.13598531	    -65.87933062	     -4.02897076	    -15.40700573	      5.40186146	     13.48281210	      8.19079815	      1.42947727	    -13.12283894	      0.38420921	    -11.29951061	     -0.97698826	      3.59399184	     -0.69799883	      2.12074226
      1.12016667	     -3.34555696	      4.20502182	     -2.16111662	      0.13901006	      1.06836939	      0.28566556	     27.53121539	     -3.79245071	     -0.81522295	    -65.17509843	     -3.54064560	    -15.79759540	      5.34111963	     13.13568889	      8.21146664	      1.39656343	    -13.05775788	      0.58792891	    -11.32766550	     -1.01010605	      3.58371019	     -0.72579551	      2.12339811
      1.12433333	     -3.34487832	      4.21401265	     -2.24186041	      0.14420361	      1.06883512	      0.28581652	     27.95337162	     -3.64108718	     -0.49811373	    -64.39475352	     -3.07739190	    -16.23163607	      5.25120260	     12.79680072	      8.22044930	      1.33697392	    -13.00182394	      0.80349172	    -11.34359656	     -1.05958728	      3.52132570	     -0.77637314	      2.13648846
      1.12850000	     -3.32231281	      4.23329233	     -2.33748153	      0.14951669	      1.06935089	      0.28588487	     28.31621390	     -3.50588966	     -0.16403656	    -63.52846852	     -2.70363223	    -16.57451192	      5.18516072	     12.40076501	      8.25267427	      1.35064649	    -12.88771699	      0.97824193	    -11.35851478	     -1.09433957	      3.53643720	     -0.76788607	      2.13409998
      1.13266667	     -3.36537065	      4.21666027	     -2.37102758	      0.15471182	      1.06973201	      0.28597237	     28.71799241	     -3.34195616	      0.13319794	    -62.57477824	     -2.48276121	    -16.74432126	      5.16111284	     12.09434798	      8.24328531	      1.42590515	    -12.81190121	      1.06661036	    -11.37477803	     -1.10585091	      3.46357819	     -0.79117700	      2.12494935
      1.13683333	     -3.31177549	      4.24755483	     -2.50998966	      0.16012833	      1.07026583	      0.28607404	     28.99649961	     -3.20435444	      0.48731843	    -61.57653160	     -1.98312756	    -17.24222971	      5.10063757	     11.64265305	      8.28960821	      1.36287969	    -12.64945309	      1.32678950	    -11.45815797	     -1.13446856	      3.57003453	     -0.77577044	      2.11448888
      1.14100000	     -3.29010822	      4.25666577	     -2.59865654	      0.16538430	      1.07070420	      0.28628162	     29.28245734	     -3.04100820	      0.82124053	    -60.50315574	     -1.64206993	    -17.73998263	      5.01244709	     11.24970324	      8.30267997	      1.32200497	    -12.53661773	      1.53792723	    -11.50503879	     -1.17790171	      3.49858707	     -0.81596642	      2.10847932
      1.14516667	     -3.26734061	      4.26103442	     -2.67066334	      0.17064605	      1.07112777	      0.28645375	     29.53758447	     -2.88414687	      1.12991699	    -59.35629652	     -1.43203329	    -18.27156258	      4.87175163	     10.85335952	      8.31652408	      1.27834034	    -12.41698129	      1.73305011	    -11.52784090	     -1.24904043	      3.37331737	     -0.82821778	      2.09868857
      1.14933333	     -3.17100134	      4.25651295	     -2.73023500	      0.17595207	      1.07167865	      0.28658763	     29.67036791	     -2.73588640	      1.41863156	    -58.11672281	     -1.39255372	    -18.83127919	      4.54820166	     10.35241726	      8.33312233	      1.32986294	    -12.25258957	      1.88263123	    -11.48312198	     -1.41906007	      3.24407324	     -0.87701373	      2.08987617
      1.15350000	     -3.20783594	      4.26578330	     -2.78751355	      0.18137003	      1.07198436	      0.28669636	     29.91780857	     -2.59821547	      1.72496786	    -56.83563863	     -1.17168208	    -19.00216719	      4.49181485	      9.98613188	      8.36288197	      1.36482098	    -12.08029438	      2.01314408	    -11.55254092	     -1.44697431	      3.34610460	     -0.87297176	      2.07498547
      1.15766667	     -3.23149301	      4.28022438	     -2.84436342	      0.18678978	      1.07228178	      0.28683792	     30.12347544	     -2.46570217	      2.02588049	    -55.49599389	     -0.96639428	    -19.27464571	      4.42582306	      9.60132055	      8.39795180	      1.39487189	    -11.89914588	      2.16220585	    -11.64008405	     -1.47883849	      3.40862392	     -0.89992393	      2.05425307
      1.16183333	     -3.25073049	      4.29764121	     -2.89435401	      0.19219915	      1.07254994	      0.28699848	     30.29990049	     -2.34275936	      2.31224648	    -54.10034122	     -0.82002358	    -19.57691820	      4.35628684	      9.20835419	      8.43721091	      1.43453485	    -11.71097577	      2.30320164	    -11.72922569	     -1.51221500	      3.45026449	     -0.93881627	      2.02890205
      1.16600000	     -3.19897202	      4.30531489	     -2.94391573	      0.19753091	      1.07289730	      0.28720888	     30.37326215	     -2.21224633	      2.58580873	    -52.63748701	     -0.82188776	    -20.21026214	      4.17069835	      8.74512120	      8.46664246	      1.43873744	    -11.53194057	      2.48574038	    -11.88608080	     -1.60550816	      3.30180108	     -0.90241819	      1.93021887
      1.17016667	     -3.23637665	      4.32886551	     -2.95106788	      0.20298105	      1.07309587	      0.28731817	     30.50532642	     -2.12542895	      2.82025213	    -51.12493385	     -0.75622901	    -20.35049836	      4.10828992	      8.35883764	      8.52204056	      1.54128375	    -11.32089500	      2.55075038	    -11.91467630	     -1.63679626	      3.40414062	     -1.02673324	      1.92643594
      1.17433333	     -3.13514148	      4.32058523	     -2.94713589	      0.20833175	      1.07349690	      0.28746158	     30.45489403	     -2.02309458	      3.01196216	    -49.53254614	     -0.91612516	    -20.95441016	      3.79134805	      7.82610784	      8.54781468	      1.63403888	    -11.11399766	      2.67196347	    -12.06625039	     -1.80496600	      3.21938432	     -1.05014704	      1.76866514
      1.17850000	     -3.21164363	      4.36119358	     -2.96775323	      0.21381656	      1.07355142	      0.28764050	     30.58296373	     -1.95041664	      3.25130948	    -47.93724260	     -0.81740858	    -21.02069055	      3.73404413	      7.47575602	      8.61487241	      1.69535340	    -10.89477685	      2.76164769	    -12.11654816	     -1.83476768	      3.36331471	     -1.12420440	      1.76037284
      1.18266667	     -3.27718764	      4.39496134	     -2.97274998	      0.21932386	      1.07361035	      0.28782396	     30.66705042	     -1.88439817	      3.45158824	    -46.28774407	     -0.76988359	    -21.13731090	      3.66897194	      7.10934811	      8.67637951	      1.75789513	    -10.67086075	      2.87475203	    -12.20548194	     -1.86895386	      3.48607138	     -1.18857879	      1.73659477
      1.18683333	     -3.42982828	      4.46175632	     -2.95973141	      0.22470884	      1.07344577	      0.28805344	     30.84478067	     -1.84917352	      3.65633492	    -44.63382042	     -0.69871444	    -21.18981395	      3.64310757	      6.85769807	      8.76230279	      1.83015651	    -10.47475587	      2.93646122	    -12.24668675	     -1.88203176	      3.45171696	     -1.29554893	      1.72896458
      1.19100000	     -3.39092098	      4.46463177	     -2.93743337	      0.23030593	      1.07365811	      0.28817909	     30.74172777	     -1.79426443	      3.77686524	    -42.86722447	     -0.78396453	    -21.34503398	      3.55811680	      6.35846269	      8.80305848	      1.92167885	    -10.23527904	      3.08800581	    -12.39962401	     -1.92891374	      3.69836295	     -1.30297183	      1.66615340
